<?xml version="1.0" encoding="UTF-8" standalone="no"?>
<!-- Created with Inkscape (http://www.inkscape.org/) -->

<svg
   xmlns:dc="http://purl.org/dc/elements/1.1/"
   xmlns:cc="http://creativecommons.org/ns#"
   xmlns:rdf="http://www.w3.org/1999/02/22-rdf-syntax-ns#"
   xmlns:svg="http://www.w3.org/2000/svg"
   xmlns="http://www.w3.org/2000/svg"
   xmlns:sodipodi="http://sodipodi.sourceforge.net/DTD/sodipodi-0.dtd"
   xmlns:inkscape="http://www.inkscape.org/namespaces/inkscape"
   width="66.588181mm"
   height="48.758778mm"
   viewBox="0 0 66.588181 48.758778"
   version="1.1"
   id="svg6469"
   inkscape:version="0.92.1 r"
   sodipodi:docname="bullet_ss.svg">
  <defs
     id="defs6463" />
  <sodipodi:namedview
     id="base"
     pagecolor="#ffffff"
     bordercolor="#666666"
     borderopacity="1.0"
     inkscape:pageopacity="0.0"
     inkscape:pageshadow="2"
     inkscape:zoom="0.7"
     inkscape:cx="362.04991"
     inkscape:cy="104.41072"
     inkscape:document-units="mm"
     inkscape:current-layer="layer1"
     showgrid="false"
     inkscape:object-nodes="false"
     fit-margin-top="0"
     fit-margin-left="0"
     fit-margin-right="0"
     fit-margin-bottom="0"
     inkscape:window-width="1366"
     inkscape:window-height="768"
     inkscape:window-x="0"
     inkscape:window-y="0"
     inkscape:window-maximized="0" />
  <metadata
     id="metadata6466">
    <rdf:RDF>
      <cc:Work
         rdf:about="">
        <dc:format>image/svg+xml</dc:format>
        <dc:type
           rdf:resource="http://purl.org/dc/dcmitype/StillImage" />
        <dc:title></dc:title>
      </cc:Work>
    </rdf:RDF>
  </metadata>
  <g
     inkscape:label="Layer 1"
     inkscape:groupmode="layer"
     id="layer1"
     transform="translate(-0.534776,0.08917788)">
    <path
       style="opacity:1;fill:#fff6d5;fill-opacity:1;stroke:none;stroke-width:1.46499979;stroke-linecap:round;stroke-linejoin:miter;stroke-miterlimit:4;stroke-dasharray:none;stroke-dashoffset:0;stroke-opacity:1"
       d="M 33.828868,-0.08917788 A 34.962795,34.962795 0 0 0 0.534776,24.247837 34.962795,34.962795 0 0 0 33.828868,48.669601 34.962795,34.962795 0 0 0 67.12296,24.332586 34.962795,34.962795 0 0 0 33.828868,-0.08917788 Z"
       id="path7014"
       inkscape:connector-curvature="0" />
    <path
       inkscape:connector-curvature="0"
       id="path7019"
       d="M 33.828868,5.2830263 A 27.258448,27.258448 0 0 0 7.8714097,24.257174 27.258448,27.258448 0 0 0 33.828868,43.297397 27.258448,27.258448 0 0 0 59.786326,24.323249 27.258448,27.258448 0 0 0 33.828868,5.2830263 Z"
       style="opacity:1;fill:#806600;fill-opacity:1;stroke:none;stroke-width:1.14217472;stroke-linecap:round;stroke-linejoin:miter;stroke-miterlimit:4;stroke-dasharray:none;stroke-dashoffset:0;stroke-opacity:1" />
    <path
       style="opacity:1;fill:#ffd42a;fill-opacity:1;stroke:none;stroke-width:0.82617372;stroke-linecap:round;stroke-linejoin:miter;stroke-miterlimit:4;stroke-dasharray:none;stroke-dashoffset:0;stroke-opacity:1"
       d="M 33.828868,10.541669 A 19.716961,19.716961 0 0 0 15.052957,24.266314 19.716961,19.716961 0 0 0 33.828868,38.038754 19.716961,19.716961 0 0 0 52.604778,24.314109 19.716961,19.716961 0 0 0 33.828868,10.541669 Z"
       id="path7021"
       inkscape:connector-curvature="0" />
    <g
       id="g7032">
      <path
         style="opacity:1;fill:#fff6d5;fill-opacity:1;stroke:none;stroke-width:1.46499979;stroke-linecap:round;stroke-linejoin:miter;stroke-miterlimit:4;stroke-dasharray:none;stroke-dashoffset:0;stroke-opacity:1"
         d="M 33.828868,-0.08917788 A 34.962795,34.962795 0 0 0 0.534776,24.247837 34.962795,34.962795 0 0 0 33.828868,48.669601 34.962795,34.962795 0 0 0 67.12296,24.332586 34.962795,34.962795 0 0 0 33.828868,-0.08917788 Z"
         id="path7023"
         inkscape:connector-curvature="0" />
      <path
         inkscape:connector-curvature="0"
         id="path7025"
         d="M 33.828868,5.2830263 A 27.258448,27.258448 0 0 0 7.8714097,24.257174 27.258448,27.258448 0 0 0 33.828868,43.297397 27.258448,27.258448 0 0 0 59.786326,24.323249 27.258448,27.258448 0 0 0 33.828868,5.2830263 Z"
         style="opacity:1;fill:#806600;fill-opacity:1;stroke:none;stroke-width:1.14217472;stroke-linecap:round;stroke-linejoin:miter;stroke-miterlimit:4;stroke-dasharray:none;stroke-dashoffset:0;stroke-opacity:1" />
      <path
         style="opacity:1;fill:#ffd42a;fill-opacity:1;stroke:none;stroke-width:0.82617372;stroke-linecap:round;stroke-linejoin:miter;stroke-miterlimit:4;stroke-dasharray:none;stroke-dashoffset:0;stroke-opacity:1"
         d="M 33.828868,10.541669 A 19.716961,19.716961 0 0 0 15.052957,24.266314 19.716961,19.716961 0 0 0 33.828868,38.038754 19.716961,19.716961 0 0 0 52.604778,24.314109 19.716961,19.716961 0 0 0 33.828868,10.541669 Z"
         id="path7027"
         inkscape:connector-curvature="0" />
    </g>
  </g>
</svg>
