<?xml version="1.0" encoding="UTF-8" standalone="no"?>
<!-- Created with Inkscape (http://www.inkscape.org/) -->

<svg
   xmlns:dc="http://purl.org/dc/elements/1.1/"
   xmlns:cc="http://creativecommons.org/ns#"
   xmlns:rdf="http://www.w3.org/1999/02/22-rdf-syntax-ns#"
   xmlns:svg="http://www.w3.org/2000/svg"
   xmlns="http://www.w3.org/2000/svg"
   xmlns:sodipodi="http://sodipodi.sourceforge.net/DTD/sodipodi-0.dtd"
   xmlns:inkscape="http://www.inkscape.org/namespaces/inkscape"
   width="73.23185mm"
   height="74.568199mm"
   viewBox="0 0 73.23185 74.568199"
   version="1.1"
   id="svg4529"
   inkscape:version="0.92.1 r"
   sodipodi:docname="circle_p.svg">
  <defs
     id="defs4523" />
  <sodipodi:namedview
     id="base"
     pagecolor="#ffffff"
     bordercolor="#666666"
     borderopacity="1.0"
     inkscape:pageopacity="0.0"
     inkscape:pageshadow="2"
     inkscape:zoom="0.7"
     inkscape:cx="199.42446"
     inkscape:cy="124.60037"
     inkscape:document-units="mm"
     inkscape:current-layer="layer1"
     showgrid="false"
     inkscape:object-nodes="false"
     inkscape:window-width="1366"
     inkscape:window-height="768"
     inkscape:window-x="0"
     inkscape:window-y="0"
     inkscape:window-maximized="0"
     fit-margin-top="0"
     fit-margin-left="0"
     fit-margin-right="0"
     fit-margin-bottom="0" />
  <metadata
     id="metadata4526">
    <rdf:RDF>
      <cc:Work
         rdf:about="">
        <dc:format>image/svg+xml</dc:format>
        <dc:type
           rdf:resource="http://purl.org/dc/dcmitype/StillImage" />
        <dc:title></dc:title>
      </cc:Work>
    </rdf:RDF>
  </metadata>
  <g
     inkscape:label="Layer 1"
     inkscape:groupmode="layer"
     id="layer1"
     transform="translate(-2.3942986,-1.6671715)">
    <g
       id="g8075">
      <path
         inkscape:connector-curvature="0"
         id="path5088"
         d="M 15.223236,62.070085 12.016002,75.9681 27.250366,66.880935 46.76104,69.8209 58.253629,69.286363 64.935367,76.235369 63.866289,62.604623 Z"
         style="fill:#550044;fill-opacity:1;fill-rule:evenodd;stroke:none;stroke-width:0.26458332px;stroke-linecap:butt;stroke-linejoin:miter;stroke-opacity:1" />
      <circle
         r="36.615925"
         cy="38.283096"
         cx="39.010223"
         id="path5074"
         style="opacity:1;fill:#550044;fill-opacity:1;stroke:none;stroke-width:1.46499991;stroke-linecap:round;stroke-linejoin:miter;stroke-miterlimit:4;stroke-dasharray:none;stroke-dashoffset:0;stroke-opacity:1" />
      <path
         inkscape:connector-curvature="0"
         id="ellipse5083"
         d="M 52.256093,14.336466 A 24.455162,25.086011 0 0 0 35.001334,38.283426 24.455162,25.086011 0 0 0 52.189431,62.234052 33.141422,26.140046 0 0 0 72.151521,38.283426 33.141422,26.140046 0 0 0 52.256093,14.336466 Z"
         style="opacity:1;fill:#c837ab;fill-opacity:1;stroke:none;stroke-width:9.60006714;stroke-linecap:round;stroke-linejoin:miter;stroke-miterlimit:4;stroke-dasharray:none;stroke-dashoffset:0;stroke-opacity:1" />
      <path
         inkscape:connector-curvature="0"
         id="circle5078"
         d="M 38.372186,8.3715819 A 29.934185,29.934185 0 0 0 9.0757841,38.282935 29.934185,29.934185 0 0 0 38.382523,68.186019 33.542324,38.486812 0 0 1 25.914034,38.282935 33.542324,38.486812 0 0 1 38.372186,8.3715819 Z"
         style="opacity:1;fill:#a02c89;fill-opacity:1;stroke:none;stroke-width:1.19766414;stroke-linecap:round;stroke-linejoin:miter;stroke-miterlimit:4;stroke-dasharray:none;stroke-dashoffset:0;stroke-opacity:1" />
      <ellipse
         ry="10.690781"
         rx="6.5481033"
         cy="38.283096"
         cx="59.456348"
         id="path5076"
         style="opacity:1;fill:#e5ffd5;fill-opacity:1;stroke:none;stroke-width:3.24291587;stroke-linecap:round;stroke-linejoin:miter;stroke-miterlimit:4;stroke-dasharray:none;stroke-dashoffset:0;stroke-opacity:1" />
      <path
         inkscape:connector-curvature="0"
         style="opacity:1;fill:#e580ff;fill-opacity:1;stroke:none;stroke-width:0.80478734;stroke-linecap:round;stroke-linejoin:miter;stroke-miterlimit:4;stroke-dasharray:none;stroke-dashoffset:0;stroke-opacity:1"
         d="M 29.55691,14.814497 A 16.557593,24.435984 0 0 0 13.352096,39.231843 16.557593,24.435984 0 0 0 29.562628,63.642438 18.553375,31.417696 0 0 1 22.665892,39.231843 18.553375,31.417696 0 0 1 29.55691,14.814497 Z"
         id="path5098" />
      <path
         sodipodi:nodetypes="ccccc"
         inkscape:connector-curvature="0"
         id="rect5091"
         d="m 17.490615,51.654441 c 8.215976,1.673674 16.953435,2.728269 25.657875,1.27567 v 2.923752 c -8.951481,1.161304 -17.703344,0.229268 -25.657875,-0.992188 z"
         style="opacity:1;fill:#b3ff80;fill-opacity:1;stroke:none;stroke-width:0.97610188;stroke-linecap:round;stroke-linejoin:miter;stroke-miterlimit:4;stroke-dasharray:none;stroke-dashoffset:0;stroke-opacity:1" />
      <path
         style="opacity:1;fill:#b3ff80;fill-opacity:1;stroke:none;stroke-width:0.68123776;stroke-linecap:round;stroke-linejoin:miter;stroke-miterlimit:4;stroke-dasharray:none;stroke-dashoffset:0;stroke-opacity:1"
         d="m 18.163201,57.248791 c 5.734067,1.168085 11.832085,1.904105 17.907059,0.890312 v 2.040535 c -6.247388,0.810493 -12.355459,0.16001 -17.907059,-0.692465 z"
         id="path5094"
         inkscape:connector-curvature="0"
         sodipodi:nodetypes="ccccc" />
      <circle
         r="3.7417734"
         cy="32.06596"
         cx="51.834469"
         id="path5096"
         style="opacity:1;fill:#b3ff80;fill-opacity:1;stroke:none;stroke-width:3.72909069;stroke-linecap:round;stroke-linejoin:miter;stroke-miterlimit:4;stroke-dasharray:none;stroke-dashoffset:0;stroke-opacity:1" />
    </g>
  </g>
</svg>
